<?xml version="1.0" encoding="UTF-8" standalone="no"?>
<svg
   xmlns:dc="http://purl.org/dc/elements/1.1/"
   xmlns:cc="http://creativecommons.org/ns#"
   xmlns:rdf="http://www.w3.org/1999/02/22-rdf-syntax-ns#"
   xmlns:svg="http://www.w3.org/2000/svg"
   xmlns="http://www.w3.org/2000/svg"
   xmlns:sodipodi="http://sodipodi.sourceforge.net/DTD/sodipodi-0.dtd"
   xmlns:inkscape="http://www.inkscape.org/namespaces/inkscape"
   width="24"
   height="24"
   viewBox="0 0 24 24"
   version="1.1"
   id="svg4199"
   inkscape:version="0.48.4 r9939"
   sodipodi:docname="loop.svg">
  <metadata
     id="metadata4214">
    <rdf:RDF>
      <cc:Work
         rdf:about="">
        <dc:format>image/svg+xml</dc:format>
        <dc:type
           rdf:resource="http://purl.org/dc/dcmitype/StillImage" />
        <dc:title>loop</dc:title>
      </cc:Work>
    </rdf:RDF>
  </metadata>
  <sodipodi:namedview
     pagecolor="#ffffff"
     bordercolor="#666666"
     borderopacity="1"
     objecttolerance="10"
     gridtolerance="10"
     guidetolerance="10"
     inkscape:pageopacity="0"
     inkscape:pageshadow="2"
     inkscape:window-width="1646"
     inkscape:window-height="999"
     id="namedview4212"
     showgrid="false"
     inkscape:zoom="16.857143"
     inkscape:cx="6.5"
     inkscape:cy="7"
     inkscape:window-x="0"
     inkscape:window-y="0"
     inkscape:window-maximized="0"
     inkscape:current-layer="svg4199" />
  <!-- Generator: Sketch 3.6.1 (26313) - http://www.bohemiancoding.com/sketch -->
  <title
     id="title4201">loop</title>
  <desc
     id="desc4203">Created with Sketch.</desc>
  <defs
     id="defs4205" />
  <g
     id="Page-1"
     transform="matrix(1.0892857,0,0,1,5,5)"
     style="fill:none;stroke:none">
    <g
       id="loop"
       style="fill:#1a1918">
      <g
         id="search-icon">
        <path
           d="M 5.4995455,0 C 2.4625238,0 0,2.6861676 0,6 0,9.3138324 2.4625238,12 5.4995455,12 8.5374762,12 11,9.3138324 11,6 11,2.6861676 8.5374762,0 5.4995455,0 l 0,0 z M 5.4804562,10.275657 C 3.3151806,10.275657 1.5607801,8.3609321 1.5607801,6 c 0,-2.3609321 1.7544005,-4.2756569 3.9196761,-4.2756569 2.1643665,0 3.919676,1.9147248 3.919676,4.2756569 0,2.3609321 -1.7553095,4.275657 -3.919676,4.275657 l 0,0 z"
           id="Fill-1"
           inkscape:connector-curvature="0" />
        <path
           d="M 8.2622951,10.25 9.4098361,9 12.852459,12.75 11.704918,14 8.2622951,10.25"
           id="Fill-2"
           inkscape:connector-curvature="0" />
      </g>
    </g>
  </g>
</svg>
